<mxfile host="app.diagrams.net" modified="2024-08-04T06:42:13.157Z" agent="Mozilla/5.0 (Windows NT 10.0; Win64; x64) AppleWebKit/537.36 (KHTML, like Gecko) Chrome/109.0.0.0 Safari/537.36 SLBrowser/9.0.3.5211 SLBChan/33" version="24.7.2" etag="4RS1z9TZXlFzMP75C4Xt" type="github">
  <diagram name="第 1 页" id="YK-qXCLHNTOcD6AwveKs">
    <mxGraphModel>
      <root>
        <mxCell id="0" />
        <mxCell id="1" parent="0" />
      </root>
    </mxGraphModel>
  </diagram>
</mxfile>
